<svg xmlns="http://www.w3.org/2000/svg" width="728.327" height="929.473" viewBox="0 0 728.32666 929.47333"><defs><clipPath id="a"><path d="M0 697.105h546.245V0H0z"/></clipPath></defs><g clip-path="url(#a)" transform="rotate(180 364.163 464.736) scale(1.33333)"><path d="M194.923 554.643c25 50.643 79.038 85.622 135.478 87.693a439.675 439.675 0 0 0 2.987-53.075c-.044-10.27-.463-20.636-3.047-30.575-5.885-22.635-22.268-40.814-38.106-58.022z" fill="#2d2c29"/><path d="M453.663 321.215c-1.472-10.415 8.151-20.161 18.61-21.277 10.46-1.116 20.693 4.661 27.64 12.558 11.301 12.844 15.32 30.999 13.45 48.005-1.868 17.005-9.103 33.013-18.05 47.595-10.792 17.591-24.128 33.483-35.507 50.701-11.378 17.216-20.946 36.311-22.841 56.862-1.895 20.55 5.069 42.796 21.56 55.202 8.18 6.154 18.147 9.568 28.22 11.379 13.425 2.412 27.868 1.978 39.915-4.417s21.003-19.706 19.398-33.251c-.828-6.996-5.427-14.328-12.428-15.115-7.034-.792-12.822 5.002-18.183 9.625a74.649 74.649 0 0 1-28.889 15.396c-2.224.61-4.695 1.094-6.755.061-1.607-.805-2.657-2.39-3.56-3.943-6.435-11.049-9.276-24.286-7.215-36.906 3.866-23.672 23.229-41.126 38.788-59.38 14.212-16.672 26.103-35.741 31.827-56.886 13.379-49.419-12.537-106.545-58.535-129.027zM92.83 544.71c-11.357 55.323 9.823 116.11 53.102 152.396a439.341 439.341 0 0 0 34.943-40.062c6.27-8.133 12.305-16.572 16.366-26.004 9.25-21.48 7.48-45.888 5.542-69.195zm310.061-339.127c-14.506-50.137 5.198-105.708-10.785-155.394-1.604-4.983-3.576-9.963-3.71-15.197-.135-5.233 2.041-10.93 6.73-13.256 28.652 39.468 45.038 87.71 46.353 136.465z" fill="#13110f"/><path d="M150.01 322.589c28.623-91.126 31.56-190.171 8.384-282.834-1.149-4.592-1.886-10.505 2.08-13.087 5.363-3.49 11.44 3.332 14.052 9.174a282.89 282.89 0 0 1 22.263 79.184c2.17 16.863 8.383 32.148 10.585 49.276-.907-9.325 31.86-26.697 34.68-39.536 1.103-5.028.884-10.24.66-15.383l-3.299-75.409c-.272-6.234 1.255-26.939 13.225-22.94 5.896 1.97 5.497 20.535 6.585 25.713 6.243 29.71 14.194 59.165 21.276 88.687 6.483 27.021 14.09 55.934 35.294 73.896 37.817 32.033 103.101 12.765 102.236-42.933-.23-14.837-5.97-31.022 1.798-43.67 8.32-13.536 21.33-16.596 25.72-32.106 3.592-12.695 1.361-36.457-.184-49.924-1.327-11.573-1.415-26.936 9.633-30.633 8.426-2.82 23.732 88.867 25.148 97.358 2.735 16.403-11.03 22.933-13.606 36.417 0 .008-.003.015-.004.022-6.38 33.556 33.86 60.568 39.543 92.73 3.72 21.047 7.43 42.76 2.748 63.616-5.24 23.346-20.425 43.078-35.986 61.255-15.195 17.749-32.307 35.578-54.729 42.147-27.349 8.012-57.437-2.844-79.359-21.054-22.79-18.933-41.476-43.1-59.134-66.66-5.607-7.482-12.958-15.781-22.259-14.84-8.595.87-14.144 9.23-18.433 16.727l-18.753 32.788c-4.136 7.231-8.306 16.252-4.08 23.431z" fill="#4a4847"/><path d="M153.832 306.91c7.75-3.56 16.704-3.228 25.148-2.031 21.804 3.088 44.523 13.06 54.393 32.745 2.505 4.995 3.88 11.556.228 15.785-3.873 4.483-10.922 3.719-16.7 2.404-13.724-3.125-107.155-28.661-63.07-48.903" fill="#ffd556"/><path d="M46.252 374.2c-24.509 25.798-35.797 48.516-42.818 83.141-2.487 12.264-4.636 24.88-2.662 37.236 7.21 45.146 51.426 72.2 88.69 89.064 32.52 14.72 66.861 27.35 102.548 28.186 25.32.593 51.752-5.384 71.001-21.843 20.635-17.645 30.351-44.598 38.76-70.414 8.74-26.846 17.043-55.609 9.794-82.896-5.343-20.118-18.664-37.17-33.268-52-27.212-27.633-71.467-65.276-112.183-68.153-43.009-3.038-91.667 28-119.862 57.678" fill="#4a4847"/><path d="M195.003 519.51c-.579 1.208-1.972 1.377-3.155 1.084-1.49-.37-2.552-1.372-3.222-2.732-1.44-2.927-1.1-6.677 1.345-8.984 3.083-2.91 8.035-2.11 10.758.86 2.885 3.148 3.64 7.935 1.363 11.643-.835 1.36-2.473 2.514-4.147 2.379-3.35-.271-6.727-1.19-8.45-4.362-2.112-3.885-.26-9.072 4.083-10.347 4.206-1.236 8.28 2.13 8.107 6.42-.07 1.714-.774 3.35-2.017 4.53-2.025 1.925-4.475 1.838-6.869.778-1.952-.865-2.968-3.785-2.335-5.74.662-2.046 2.617-3.862 4.9-3.73l-.92.135-2.278 1.328c-1.04 1.202-1.402 2.495-1.085 3.878-.446-1.242.151-.465 1.792 2.33.918.25 1.836.498 2.754.746l3.402-2.01c.241-.303.364-.641.37-1.014.096-.842-.302-1.706-.69-2.422-.26-.483-.483-.127.036-.087-.84-.064.182.036.477.133l-4.672 1.235c.364-.382.343-.334-.064.145-.212.593-.236.643-.074.152.11-.508.11-.448-.003.18a5.496 5.496 0 0 0-.013-.703c.008.975-.044.106-.136-.215.334 1.174-.603-.876.07.028a5.097 5.097 0 0 0-.46-.516c-.34-.308-.332-.304.025.012-.664-.178.141-.02.38.015-.459.01-.464-.014-.014-.072-.4.119-.38.095.06-.072-.334.21-.319.187.044-.066-.222.242-.254.266-.094.07.057-.532-.364.948-.069.114a5.08 5.08 0 0 0-.26 1.14c.067-.647.032.295.04.347.025.35.03.38.013.09.04.182.092.36.155.535.26.779.178.537.561 1.212.27.475.553 1.012.292 1.554M90.316 562.207c-.355.338-.53.76-.99 1.017-.484.271-1.084.32-1.631.32-1.263-.003-2.316-.542-3.246-1.355-1.82-1.59-2.548-4.136-1.871-6.449 1.504-5.139 8.695-6.739 12.145-2.605 3.823 4.58 1.387 12.303-4.934 12.73-2.87.193-5.663-1.495-7.15-3.904-1.844-2.989-1.207-6.489 1.004-9.048 1.688-1.955 4.906-1.88 6.815-.406 1.839 1.421 2.913 4.637 1.337 6.696-.313.452-.272.271.124-.544.07-.967.1-1.174.09-.619-.166-.948-.172-1.152-.02-.612.164.513.084.357-.237-.47.27.455.158.342-.336-.336.368.371.233.294-.404-.23.449.262.297.212-.455-.147a2.721 2.721 0 0 0-1.497.038c.485-.145.353-.084-.396.183-.583.495-.702.574-.354.236-.433.601-.525.695-.275.284-.26.676-.32.784-.177.324-.068.732-.085.854-.051.366-.016-.477.013-.364.089.34a3.436 3.436 0 0 0-.143-.52c.045.291.17.535.375.732.234.271.229.273-.015.01a1.4 1.4 0 0 0 .792.44c-.44-.115-.382-.129.17-.044a3.729 3.729 0 0 0-.606.007c.52-.078.56-.073.12.011-.396.128-.387.113.026-.046-.338.212-.35.2-.032-.038-.266.28-.284.28-.05.003.095-.337.084-.307-.032.091a.318.318 0 0 0-.01-.308c.04.355.02.271.182.567.199.365.559.68.83.994.146.168.535.765.623.81.536.274.613 1.081.19 1.482m8.918-53.123c-1.343-8.993 13.062-15.166 21.06-15.988 23.51-2.417 4.67 21.91-8.041 24.49-3.815.775-8.173-.26-10.581-3.318-1.425-1.812-2.194-3.545-2.438-5.184" fill="#fffffd"/><path d="M61.848 497.355c-4.424-3.298-4.125-11.24-2.51-15.864 2.393-6.848 7.8-11.705 14.997-12.943 8.762-1.506 17.354 2.277 24.265 7.406 7.515 5.577 15.092 13.048 19.186 21.577 2.885 6.012-5.307 10.942-9 5.26l-2.01-3.096c-2.385-3.67 2.381-8.475 6.058-6.058l3.082 2.025-6.314 8.184c-8.086-10.005-16.362-23.034-29.8-26.22-5.386-1.277-10.677.606-14.052 4.986-1.497 1.943-2.57 4.299-3.113 6.689-.599 2.637-.018 5.089-.188 7.709-.017.27-.338.54-.6.345" fill="#fffffd"/><path d="M141.426 466.156c-1.645-2.906-2.64-5.606-4.972-8.145-2.14-2.33-4.72-4.185-7.742-5.193-5.932-1.981-12.793-.07-17.134 4.373-4.39 4.496-5.154 11.416-4.19 17.368.53 3.274 1.527 6.489 2.68 9.593a70.202 70.202 0 0 0 2.08 5.003c.336.726.703 1.433 1.054 2.15.285.58 1.1 1.045.5 1.054 5.266-.08 6.416 6.643 2.528 9.334-10.869 7.524-16.953-13.684-18.504-20.637-2.268-10.166-1.643-21.524 6.18-29.247 6.646-6.564 17-8.86 25.65-5.116 6.826 2.954 14.372 11.277 12.666 19.359-.078.37-.618.418-.796.104m46.109.488l-.187.164.206-1.588.102.184c-.53-.305-1.06-.61-1.591-.913 1.752.116 4.197-1.311 5.814-1.908 2.45-.904 4.914-1.773 7.357-2.695a239.357 239.357 0 0 0 14.162-5.861c9.276-4.196 18.224-8.998 27.253-13.681 5.37-2.786 10.036 5.062 4.763 8.148-9.915 5.804-20.653 10.275-31.48 14.083a254.112 254.112 0 0 1-16.23 5.105c-3.652 1.016-10.074 3.975-13.244.905-1.001-.968-.95-3.148.484-3.763 1.035-.444 2.21-.47 2.738.676.167.365.185.852-.147 1.144m-5.622-16.689c1.464-4.34 7.122-7.744 10.416-10.792 4.201-3.886 8.253-7.926 12.252-12.02 8.004-8.188 15.48-16.936 22.742-25.785 3.463-4.221 9.255 1.769 5.953 5.955-7.266 9.213-15.35 17.577-24.042 25.456-4.256 3.858-8.722 7.488-13.258 11.01-3.497 2.713-8.208 7.554-12.803 7.83-.82.049-1.522-.88-1.26-1.654" fill="#fffffd"/></g></svg>